:SAMPLES-PER-SECOND 30
:FULLY-SPECIFIED
:DEGREES
94
root  39.2411 35.0665 2.34445 -45.5465 -80.3384 39.6833
RightUpLeg  7.84018 -22.3904 -15.2322
RightLeg  49.3404 -13.2611 -16.2819
RightFoot  -35.356 3.98668 19.8625
RightToes  0.000482159 0.542163 -0.142577
Spine  15.1376 1.19458 -5.13427
Spine1  -2.15284 1.00385 2.94564
HEad  -41.6104 12.1369 -5.11208
LeftShoulder1  10.1106 -15.0605 -47.5365
LeftArm  4.82489 -5.99496 -38.0824
LeftForeArm  57.8457 -61.2047 -14.9776
LeftHand  -0.25398 0.0180481 5.50724
RightShoulder  5.81331 10.6753 35.0367
RightArm  0.77716 -24.8793 31.872
RightForeArm  -11.0408 36.4895 8.92666
RightHand  -5.03514 12.5381 -32.2125
LeftUpLeg  -12.8314 17.3676 19.9201
LeftLeg  42.4799 12.815 12.7304
LeftFoot  -2.71939 1.2407 -16.6118
LeftToes  1.06246e-005 4.65855e-005 -8.18502e-006
95
root  38.9474 34.8582 1.64116 -85.0536 -84.3822 79.2543
RightUpLeg  7.01244 -17.4059 -12.4429
RightLeg  48.4476 -11.9904 -14.4125
RightFoot  -38.7687 4.19663 18.1445
RightToes  0.000482159 0.542163 -0.142577
Spine  13.5876 1.64849 0.434065
Spine1  -0.807882 2.29046 2.1997
HEad  -40.9313 17.6571 -9.09328
LeftShoulder1  10.395 -14.9831 -49.0926
LeftArm  -0.147455 -4.26795 -32.3218
LeftForeArm  52.1105 -55.6889 -12.0569
LeftHand  -0.25398 0.0180481 5.50724
RightShoulder  5.66839 10.5402 34.4078
RightArm  -2.08517 -20.2989 31.9807
RightForeArm  -10.4595 40.1143 10.0627
RightHand  -5.17871 12.7256 -32.758
LeftUpLeg  -14.1193 11.7703 19.9157
LeftLeg  49.4579 16.0931 19.5105
LeftFoot  1.27705 0.882121 -7.91519
LeftToes  1.06246e-005 4.65855e-005 -8.18502e-006
96
root  38.6541 34.6205 1.09649 -138.614 -84.269 131.983
RightUpLeg  6.42605 -14.3855 -10.4123
RightLeg  50.5869 -10.6813 -13.96
RightFoot  -38.4271 3.78222 16.6968
RightToes  0.000482159 0.542163 -0.142577
Spine  14.4268 1.39276 5.7225
Spine1  0.452232 2.50696 3.72215
HEad  -41.4273 22.9027 -13.8607
LeftShoulder1  10.849 -15.0974 -50.9119
LeftArm  -3.43628 -1.24261 -26.5233
LeftForeArm  46.2864 -50.1563 -9.90302
LeftHand  -0.25398 0.0180481 5.50724
RightShoulder  5.5749 10.3747 34.2185
RightArm  -3.12017 -12.2146 32.4417
RightForeArm  -8.82435 43.6328 11.2387
RightHand  -4.83402 11.9829 -31.9231
LeftUpLeg  -16.9852 8.25123 18.2121
LeftLeg  58.8943 12.6114 21.7103
LeftFoot  1.14286 0.157567 -1.38045
LeftToes  1.06246e-005 4.65855e-005 -8.18502e-006
97
root  38.2972 34.4794 0.504846 -161.331 -81.5961 153.513
RightUpLeg  7.69178 -13.0151 -9.58481
RightLeg  51.1146 -10.016 -13.3995
RightFoot  -38.3128 3.61184 16.0739
RightToes  0.000482159 0.542163 -0.142577
Spine  16.8575 0.765541 8.71629
Spine1  1.18486 1.86585 6.54878
HEad  -42.2057 27.2729 -18.4435
LeftShoulder1  11.3069 -15.2595 -52.5661
LeftArm  -4.23288 3.36962 -21.4437
LeftForeArm  43.4297 -46.3766 -8.66693
LeftHand  -0.25398 0.0180481 5.50724
RightShoulder  5.58368 10.2523 34.6346
RightArm  -1.72482 -2.3168 33.7057
RightForeArm  -5.81371 46.6351 12.272
RightHand  -3.86529 9.77329 -29.3601
LeftUpLeg  -20.7246 10.2462 13.9849
LeftLeg  67.6985 7.91118 21.097
LeftFoot  -2.73151 0.031272 -0.362558
LeftToes  1.06246e-005 4.65855e-005 -8.18502e-006
98
root  37.8381 34.4576 -0.165909 -167.279 -78.9667 158.78
RightUpLeg  9.70905 -11.9625 -9.41619
RightLeg  49.608 -9.58087 -12.2033
RightFoot  -39.5631 3.58234 15.2619
RightToes  0.000482159 0.542163 -0.142577
Spine  19.5853 0.270006 10.9848
Spine1  1.50122 1.41804 8.09365
HEad  -42.7767 30.1921 -22.2675
LeftShoulder1  11.6619 -15.4015 -53.7652
LeftArm  -2.67988 8.28009 -17.3207
LeftForeArm  44.1957 -44.462 -7.97737
LeftHand  -0.25398 0.0180481 5.50724
RightShoulder  5.76225 10.2984 35.7696
RightArm  1.02354 6.78802 35.8681
RightForeArm  -1.43546 49.6629 13.363
RightHand  -2.69761 6.79235 -25.6792
LeftUpLeg  -25.3175 16.3138 7.075
LeftLeg  73.1658 5.64412 21.2322
LeftFoot  -6.94758 0.121336 -2.04599
LeftToes  1.06246e-005 4.65855e-005 -8.18502e-006
99
root  37.2297 34.4671 -0.83032 -170.169 -76.6361 162.07
RightUpLeg  11.0205 -11.4589 -9.46057
RightLeg  47.6992 -8.48194 -10.196
RightFoot  -40.189 3.38085 14.1571
RightToes  0.000482159 0.542163 -0.142577
Spine  21.727 0.0320512 14.4857
Spine1  1.84912 1.85897 7.29805
HEad  -43.421 31.6426 -25.385
LeftShoulder1  11.8399 -15.5275 -54.2055
LeftArm  -0.543788 12.2967 -14.7064
LeftForeArm  45.4785 -43.4049 -7.55922
LeftHand  -0.25398 0.0180481 5.50724
RightShoulder  6.00485 10.5543 36.7145
RightArm  3.61335 13.314 38.7438
RightForeArm  4.6539 53.517 14.9483
RightHand  -1.7992 4.24711 -21.7782
LeftUpLeg  -31.0892 22.7013 -1.98845
LeftLeg  73.5726 5.21115 20.3392
LeftFoot  -10.786 0.0821847 -2.38058
LeftToes  1.06246e-005 4.65855e-005 -8.18502e-006
100
root  36.4559 34.5474 -1.52389 -171.262 -74.5665 164.458
RightUpLeg  11.8707 -12.0789 -9.95927
RightLeg  45.5188 -6.86603 -7.75733
RightFoot  -39.2435 2.98456 13.0496
RightToes  0.000482159 0.542163 -0.142577
Spine  23.4678 0.216608 18.3193
Spine1  2.20477 3.12584 5.40739
HEad  -44.1054 32.3277 -27.5358
LeftShoulder1  11.7925 -15.6077 -53.78
LeftArm  0.0175313 15.9173 -13.9806
LeftForeArm  45.4546 -43.7052 -7.655
LeftHand  -0.25398 0.0180481 5.50724
RightShoulder  6.09664 10.8952 36.3514
RightArm  5.59873 17.0333 41.9161
RightForeArm  12.3427 58.1296 17.2823
RightHand  -1.20133 2.3582 -18.1316
LeftUpLeg  -37.1848 26.6399 -11.9153
LeftLeg  68.2454 5.45308 15.7224
LeftFoot  -13.4959 0.0299819 -2.47573
LeftToes  1.06246e-005 4.65855e-005 -8.18502e-006
101
root  35.5275 34.7349 -2.35641 -170.193 -73.0203 164.965
RightUpLeg  13.2827 -13.0909 -10.6106
RightLeg  42.4001 -5.66181 -5.81407
RightFoot  -37.824 2.60789 12.1442
RightToes  0.000482159 0.542163 -0.142577
Spine  25.1365 0.830904 20.711
Spine1  2.435 4.68465 4.29251
HEad  -44.0756 33.0385 -28.1151
LeftShoulder1  11.5483 -15.5918 -52.7474
LeftArm  -1.53247 20.233 -14.602
LeftForeArm  46.34 -46.9038 -8.69671
LeftHand  -0.25398 0.0180481 5.50724
RightShoulder  5.95358 11.0685 34.8909
RightArm  7.30669 18.4725 44.4099
RightForeArm  20.3162 62.9265 20.597
RightHand  -0.814404 0.807688 -15.362
LeftUpLeg  -41.1963 28.0177 -20.6846
LeftLeg  57.483 5.41534 9.65781
LeftFoot  -14.414 -0.065269 -5.75343
LeftToes  1.06246e-005 4.65855e-005 -8.18502e-006
102
root  34.4025 34.9013 -3.37414 -169.861 -72.3504 166.028
RightUpLeg  15.6581 -13.7321 -10.4615
RightLeg  38.7692 -4.45029 -4.12236
RightFoot  -36.1194 2.5284 12.5945
RightToes  0.000482159 0.542163 -0.142577
Spine  26.1278 1.77329 21.707
Spine1  2.85297 6.00481 4.67573
HEad  -42.9564 33.9819 -27.3174
LeftShoulder1  11.2091 -15.5076 -51.4583
LeftArm  -3.63305 25.1246 -15.9489
LeftForeArm  49.4408 -52.5882 -10.7685
LeftHand  -0.25398 0.0180481 5.50724
RightShoulder  5.6491 10.8282 33.467
RightArm  8.69277 18.0628 45.2077
RightForeArm  27.9485 67.5456 25.3449
RightHand  -0.631071 -0.202105 -14.1309
LeftUpLeg  -41.4966 27.4464 -26.2865
LeftLeg  44.2333 5.67609 6.2074
LeftFoot  -14.2521 -0.104392 -7.51769
LeftToes  1.06246e-005 4.65855e-005 -8.18502e-006
103
root  33.0313 34.9598 -4.53431 -171.901 -72.3622 169.148
RightUpLeg  18.0532 -14.4493 -9.91656
RightLeg  36.8852 -1.77296 -1.69111
RightFoot  -31.6742 2.53997 15.4138
RightToes  0.000482159 0.542163 -0.142577
Spine  26.1559 2.89196 21.9361
Spine1  3.77598 6.862 6.15141
HEad  -41.4431 35.0631 -26.2254
LeftShoulder1  10.9006 -15.4489 -50.2146
LeftArm  -4.96123 29.5782 -17.9705
LeftForeArm  52.6499 -58.3477 -13.504
LeftHand  -0.25398 0.0180481 5.50724
RightShoulder  5.2855 10.2047 32.6143
RightArm  9.24948 15.956 44.3584
RightForeArm  36.1515 71.512 31.4993
RightHand  -0.621623 -0.295764 -14.1324
LeftUpLeg  -39.1462 24.0325 -27.4337
LeftLeg  34.1977 7.8278 5.99721
LeftFoot  -12.9844 0.0362694 -1.51303
LeftToes  1.06246e-005 4.65855e-005 -8.18502e-006
104
root  31.4831 35.0023 -5.76884 -174.882 -72.4617 172.779
RightUpLeg  18.1825 -15.5281 -10.2063
RightLeg  40.2423 1.77179 1.3715
RightFoot  -21.0777 1.44776 18.398
RightToes  0.000482159 0.542163 -0.142577
Spine  26.311 3.74362 21.4603
Spine1  4.5603 7.27249 7.84297
HEad  -40.6162 36.3082 -25.5474
LeftShoulder1  10.7344 -15.4585 -49.4272
LeftArm  -5.64153 32.5965 -20.4918
LeftForeArm  54.217 -62.4144 -16.1875
LeftHand  -0.25398 0.0180481 5.50724
RightShoulder  5.0052 9.62045 32.1966
RightArm  8.66501 12.5098 42.6889
RightForeArm  43.5512 74.0134 37.1204
RightHand  -0.71158 0.280183 -14.5926
LeftUpLeg  -36.5772 17.5426 -24.7348
LeftLeg  31.8316 11.6913 8.11775
LeftFoot  -11.1837 0.0635464 8.61631
LeftToes  1.06246e-005 4.65855e-005 -8.18502e-006
105
root  29.9977 35.0206 -7.00861 -175.903 -72.5156 173.849
RightUpLeg  13.6014 -15.2893 -10.9825
RightLeg  50.2942 3.72758 4.46318
RightFoot  -4.13835 -1.18978 18.5659
RightToes  0.000482159 0.542163 -0.142577
Spine  27.8443 3.94872 20.1139
Spine1  4.29476 7.24498 8.68676
HEad  -40.9708 37.5337 -25.3142
LeftShoulder1  10.7617 -15.488 -49.4754
LeftArm  -6.14468 32.9437 -22.8576
LeftForeArm  55.0095 -64.3968 -17.8325
LeftHand  -0.25398 0.0180481 5.50724
RightShoulder  4.92811 9.44522 32.1158
RightArm  6.88743 8.70225 40.8001
RightForeArm  45.683 74.6955 39.2214
RightHand  -0.815114 0.761455 -15.4489
LeftUpLeg  -35.3745 12.0293 -21.7309
LeftLeg  35.9772 14.3404 11.2899
LeftFoot  -11.2749 0.0641712 14.2972
LeftToes  1.06246e-005 4.65855e-005 -8.18502e-006
106
root  28.8932 34.9061 -8.14542 -170.456 -73.1022 168.137
RightUpLeg  4.15938 -12.7092 -11.8202
RightLeg  63.632 3.49119 7.0613
RightFoot  9.80455 -3.32077 18.0116
RightToes  0.000482159 0.542163 -0.142577
Spine  31.015 3.3814 17.4774
Spine1  3.57889 6.57219 8.1995
HEad  -42.42 38.3584 -26.0578
LeftShoulder1  10.9386 -15.4927 -50.2722
LeftArm  -6.34541 29.5613 -24.6559
LeftForeArm  55.68 -64.2926 -17.6943
LeftHand  -0.25398 0.0180481 5.50724
RightShoulder  4.98084 9.54601 32.226
RightArm  3.70436 5.50208 38.929
RightForeArm  42.6524 74.2971 38.5082
RightHand  -0.889234 0.69152 -17.0287
LeftUpLeg  -35.2313 10.0301 -21.5575
LeftLeg  41.3985 15.0414 14.1237
LeftFoot  -13.5186 0.341614 13.9025
LeftToes  1.06246e-005 4.65855e-005 -8.18502e-006
107
root  27.9725 34.8524 -9.21539 -159.417 -74.3554 157.054
RightUpLeg  -7.96599 -9.63841 -13.2194
RightLeg  76.4954 1.84671 7.38426
RightFoot  11.5879 -3.4404 17.1722
RightToes  0.000482159 0.542163 -0.142577
Spine  34.588 2.02716 14.7301
Spine1  3.03184 5.23489 7.16895
HEad  -45.0298 38.8456 -28.934
LeftShoulder1  11.1777 -15.4988 -51.3406
LeftArm  -5.84658 23.1035 -26.0494
LeftForeArm  55.4334 -62.8906 -16.4747
LeftHand  -0.25398 0.0180481 5.50724
RightShoulder  5.00507 9.61396 32.2129
RightArm  -0.955228 3.02337 36.8793
RightForeArm  40.6844 74.3451 39.2782
RightHand  -1.03556 0.780808 -19.4462
LeftUpLeg  -34.5915 9.64505 -23.037
LeftLeg  44.3512 14.6643 15.2176
LeftFoot  -16.1451 0.582732 11.5417
LeftToes  1.06246e-005 4.65855e-005 -8.18502e-006
